HIERARCHY
ROOT Hips
{
  OFFSET 40.8438 95.3642 3.7442
  CHANNELS 6 Xposition Yposition Zposition Zrotation Xrotation Yrotation
  JOINT spine
  {
    OFFSET 0 8.13249 0.467659
    CHANNELS 3 Zrotation Xrotation Yrotation
    JOINT spine1
    {
      OFFSET 0 10.3498 0
      CHANNELS 3 Zrotation Xrotation Yrotation
      JOINT spine2
      {
        OFFSET 0 9.91699 0
        CHANNELS 3 Zrotation Xrotation Yrotation
        JOINT Neck
        {
          OFFSET 0 25.461 1.2139
          CHANNELS 3 Zrotation Xrotation Yrotation
          JOINT Head
          {
            OFFSET 0 7.69245 0
            CHANNELS 3 Zrotation Xrotation Yrotation
            End Site
            {
              OFFSET 0 18.62 -6.14063
            }
          }
        }
        JOINT RightShoulder
        {
          OFFSET -4.17575 10.7096 -0.581445
          CHANNELS 3 Zrotation Xrotation Yrotation
          JOINT RightArm
          {
            OFFSET 0 14.0466 0
            CHANNELS 3 Zrotation Xrotation Yrotation
            JOINT RightArmRoll
            {
              OFFSET 0 7.09098 0
              CHANNELS 3 Zrotation Xrotation Yrotation
              JOINT RightForeArm
              {
                OFFSET 0 20.6535 0
                CHANNELS 3 Zrotation Xrotation Yrotation
                JOINT RightForeArmRoll
                {
                  OFFSET 0 7.95718 0
                  CHANNELS 3 Zrotation Xrotation Yrotation
                  JOINT RightHand
                  {
                    OFFSET 0 15.9683 0
                    CHANNELS 3 Zrotation Xrotation Yrotation
                    End Site
                    {
                      OFFSET 0 0 0
                    }
                  }
                }
              }
            }
          }
        }
        JOINT LeftShoulder
        {
          OFFSET 4.17575 10.7096 -0.581445
          CHANNELS 3 Zrotation Xrotation Yrotation
          JOINT LeftArm
          {
            OFFSET 0 14.0466 0
            CHANNELS 3 Zrotation Xrotation Yrotation
            JOINT LeftArmRoll
            {
              OFFSET 0 7.09098 0
              CHANNELS 3 Zrotation Xrotation Yrotation
              JOINT LeftForeArm
              {
                OFFSET 0 20.6535 0
                CHANNELS 3 Zrotation Xrotation Yrotation
                JOINT LeftForeArmRoll
                {
                  OFFSET 0 7.95718 0
                  CHANNELS 3 Zrotation Xrotation Yrotation
                  JOINT LeftHand
                  {
                    OFFSET 0 15.9683 0
                    CHANNELS 3 Zrotation Xrotation Yrotation
                    End Site
                    {
                      OFFSET 0 0 0
                    }
                  }
                }
              }
            }
          }
        }
      }
    }
  }
  JOINT RightUpLeg
  {
    OFFSET -7.20834 -1.32182 -1.10884
    CHANNELS 3 Zrotation Xrotation Yrotation
    JOINT RightUpLegRoll
    {
      OFFSET 0 18.7238 0
      CHANNELS 3 Zrotation Xrotation Yrotation
      JOINT RightLeg
      {
        OFFSET 0 -23.1866 0
        CHANNELS 3 Zrotation Xrotation Yrotation
        JOINT RightLegRoll
        {
          OFFSET 0 23.2624 0
          CHANNELS 3 Zrotation Xrotation Yrotation
          JOINT RightFoot
          {
            OFFSET 0 19.3621 0
            CHANNELS 3 Zrotation Xrotation Yrotation
            JOINT RightToeBase
            {
              OFFSET 0 16.1857 0
              CHANNELS 3 Zrotation Xrotation Yrotation
              End Site
              {
                OFFSET 0.00686052 7.83863 -0.903522
              }
            }
          }
        }
      }
    }
  }
  JOINT LeftUpLeg
  {
    OFFSET 7.20834 -1.32182 -1.10884
    CHANNELS 3 Zrotation Xrotation Yrotation
    JOINT LeftUpLegRoll
    {
      OFFSET 0 18.7239 0
      CHANNELS 3 Zrotation Xrotation Yrotation
      JOINT LeftLeg
      {
        OFFSET 0 23.1865 0
        CHANNELS 3 Zrotation Xrotation Yrotation
        JOINT LeftLegRoll
        {
          OFFSET 0 23.4775 0
          CHANNELS 3 Zrotation Xrotation Yrotation
          JOINT LeftFoot
          {
            OFFSET 0 19.147 0
            CHANNELS 3 Zrotation Xrotation Yrotation
            JOINT LeftToeBase
            {
              OFFSET 0 16.1857 0
              CHANNELS 3 Zrotation Xrotation Yrotation
              End Site
              {
                OFFSET -0.0307459 7.83863 -0.903522
              }
            }
          }
        }
      }
    }
  }
}
MOTION
Frames: 10
Frame Time: 0.00208333
51.9877 96.0802 4.15589 -1.29929 -4.57478 -1.63891 0.494774 -0.869381 0.118488 0.982193 2.26466 0.180136 0.972616 3.9096 0.16435 -3.61688 8.83579 -3.85963 3.56244 1.50981 -4.43125 58.9068 -9.92317 -6.17281 112.733 21.2829 15.4965 1.76404e-005 5.37249e-006 1.7507e-006 8.3761 0.0665866 -0.654489 -4.15212e-006 -6.81518e-006 -3.00818 8.0291 -4.95145 0.697666 -62.2781 -6.611 4.25253 -110.127 20.3813 -4.58435 2.3231e-005 1.47437e-006 4.8717e-006 -10.0964 0.0802172 1.07073 5.76312e-006 3.37479e-007 3.05358 -8.02895 -4.95146 -0.697671 173.68 1.78325 3.53967 180 7.01561e-015 178.986 178.243 10.421 179.681 -7.7875e-007 -2.09955e-006 -0.00709639 -16.2593 67.4013 19.083 8.13658 25.234 -3.48591 -174.657 1.0024 -0.539139 4.5067e-006 -1.99009e-005 -0.985698 -0.529654 -14.504 0.600101 -3.27701e-006 -3.04128e-006 -0.248856 20.0535 72.0195 -23.3262 -8.12849 25.2331 3.48432 
51.9892 96.077 4.1492 -1.30394 -4.58689 -1.60497 0.495858 -0.866417 0.117581 0.984969 2.27058 0.178173 0.976026 3.91552 0.1623 -3.59906 8.8237 -3.87287 3.55749 1.51008 -4.44059 58.9208 -9.93263 -6.1788 112.713 21.2757 15.4912 1.76404e-005 5.37249e-006 1.7507e-006 8.38664 0.066044 -0.652063 -4.15212e-006 -6.81518e-006 -3.00818 8.0291 -4.95145 0.697666 -62.2751 -6.59545 4.24334 -110.134 20.3912 -4.57236 2.3231e-005 1.47437e-006 4.8717e-006 -10.0982 0.0802168 1.07056 5.76312e-006 3.37479e-007 3.05358 -8.02895 -4.95146 -0.697671 173.692 1.76369 3.53454 180 7.01561e-015 178.985 178.245 10.4246 179.681 -7.7875e-007 -2.09955e-006 -0.00672188 -16.2686 67.4027 19.083 8.13658 25.234 -3.48591 -174.649 1.00746 -0.540676 4.5067e-006 -1.99009e-005 -0.985698 -0.522423 -14.5257 0.601332 -3.27701e-006 -3.04128e-006 -0.248878 20.0548 72.0243 -23.3313 -8.12849 25.2331 3.48432 
51.9808 96.0746 4.17007 -1.30861 -4.59929 -1.57143 0.496939 -0.863385 0.116655 0.987761 2.27663 0.176171 0.979475 3.92157 0.160208 -3.58171 8.81112 -3.88585 3.55285 1.51078 -4.44975 58.9345 -9.94194 -6.18471 112.692 21.2683 15.4854 1.76404e-005 5.37249e-006 1.7507e-006 8.39748 0.0652376 -0.649584 -4.15212e-006 -6.81518e-006 -3.00818 8.0291 -4.95145 0.697666 -62.2721 -6.58008 4.23426 -110.142 20.4009 -4.56022 2.3231e-005 1.47437e-006 4.8717e-006 -10.1001 0.0802163 1.07035 5.76312e-006 3.37479e-007 3.05358 -8.02895 -4.95146 -0.697671 173.703 1.74398 3.52925 180 7.0156e-015 178.983 178.247 10.4286 179.682 -7.7875e-007 -2.09955e-006 -0.0063788 -16.2775 67.4044 19.0831 8.13658 25.234 -3.48591 -174.641 1.01224 -0.542239 4.5067e-006 -1.99009e-005 -0.985698 -0.51525 -14.5479 0.602534 -3.27701e-006 -3.04128e-006 -0.248911 20.0565 72.0296 -23.3368 -8.12849 25.2331 3.48432 
51.9774 96.0747 4.1683 -1.31328 -4.61189 -1.53816 0.498018 -0.860305 0.115714 0.990565 2.28278 0.174141 0.982952 3.92773 0.158087 -3.56469 8.79822 -3.89866 3.54843 1.51177 -4.45879 58.9481 -9.95116 -6.19055 112.672 21.2609 15.4793 1.76404e-005 5.37249e-006 1.7507e-006 8.40853 0.0642465 -0.647069 -4.15212e-006 -6.81518e-006 -3.00818 8.0291 -4.95145 0.697666 -62.2692 -6.56484 4.22526 -110.149 20.4104 -4.54797 2.3231e-005 1.47437e-006 4.8717e-006 -10.1021 0.0802158 1.0701 5.76312e-006 3.37479e-007 3.05358 -8.02895 -4.95146 -0.697671 173.714 1.72417 3.52384 180 7.0156e-015 178.982 178.249 10.4328 179.683 -7.7875e-007 -2.09955e-006 -0.00605773 -16.2862 67.4063 19.0834 8.13658 25.234 -3.48591 -174.633 1.01684 -0.543819 4.5067e-006 -1.99009e-005 -0.985698 -0.508119 -14.5704 0.603715 -3.27701e-006 -3.04128e-006 -0.248951 20.0586 72.0351 -23.3428 -8.12849 25.2331 3.48432 
51.9717 96.0778 4.17147 -1.31795 -4.6246 -1.50505 0.499096 -0.857197 0.114766 0.993377 2.28899 0.172095 0.986445 3.93393 0.15595 -3.54786 8.78513 -3.91137 3.54413 1.51293 -4.46776 58.9616 -9.96032 -6.19636 112.652 21.2535 15.4729 1.76404e-005 5.37249e-006 1.7507e-006 8.41971 0.0631498 -0.644533 -4.15212e-006 -6.81518e-006 -3.00818 8.0291 -4.95145 0.697666 -62.2663 -6.54966 4.2163 -110.156 20.4199 -4.53565 2.3231e-005 1.47437e-006 4.8717e-006 -10.1042 0.0802153 1.06985 5.76312e-006 3.37479e-007 3.05357 -8.02895 -4.95146 -0.697671 173.726 1.70429 3.51836 180 7.0156e-015 178.981 178.251 10.4371 179.684 -7.7875e-007 -2.09955e-006 -0.00574923 -16.2947 67.4084 19.0837 8.13658 25.234 -3.48591 -174.625 1.02133 -0.545409 4.5067e-006 -1.99009e-005 -0.985698 -0.501011 -14.5931 0.604885 -3.27701e-006 -3.04128e-006 -0.248996 20.0609 72.0408 -23.3489 -8.12849 25.2331 3.48432 
51.9826 96.0792 4.17634 -1.32261 -4.63734 -1.47197 0.500174 -0.854082 0.113816 0.996191 2.29521 0.170045 0.989943 3.94015 0.153809 -3.53108 8.772 -3.92405 3.53987 1.51414 -4.47671 58.9751 -9.96946 -6.20216 112.633 21.2461 15.4665 1.76404e-005 5.37249e-006 1.7507e-006 8.43092 0.0620268 -0.641992 -4.15212e-006 -6.81518e-006 -3.00818 8.0291 -4.95145 0.697666 -62.2634 -6.53451 4.20736 -110.163 20.4293 -4.52332 2.3231e-005 1.47437e-006 4.8717e-006 -10.1063 0.0802148 1.06959 5.76312e-006 3.37479e-007 3.05357 -8.02895 -4.95146 -0.697671 173.737 1.6844 3.51287 180 7.0156e-015 178.98 178.254 10.4415 179.684 -7.7875e-007 -2.09955e-006 -0.00544388 -16.3032 67.4105 19.0841 8.13658 25.234 -3.48591 -174.616 1.02579 -0.547001 4.5067e-006 -1.99009e-005 -0.985698 -0.493908 -14.6158 0.606052 -3.27701e-006 -3.04128e-006 -0.249042 20.0632 72.0465 -23.3551 -8.12849 25.2331 3.48432 
51.9879 96.0656 4.18799 -1.32725 -4.65002 -1.43882 0.501253 -0.850981 0.112869 0.999002 2.3014 0.168003 0.993433 3.94634 0.151676 -3.51421 8.75896 -3.93678 3.53554 1.51526 -4.4857 58.9886 -9.97864 -6.20798 112.613 21.2387 15.4603 1.76404e-005 5.37249e-006 1.7507e-006 8.44207 0.0609566 -0.639461 -4.15212e-006 -6.81518e-006 -3.00818 8.0291 -4.95145 0.697666 -62.2604 -6.51932 4.19839 -110.17 20.4387 -4.51102 2.3231e-005 1.47437e-006 4.8717e-006 -10.1084 0.0802143 1.06933 5.76312e-006 3.37479e-007 3.05357 -8.02895 -4.95146 -0.697671 173.748 1.66454 3.50741 180 7.0156e-015 178.979 178.256 10.4458 179.685 -7.7875e-007 -2.09955e-006 -0.00513224 -16.3117 67.4125 19.0844 8.13658 25.234 -3.48591 -174.608 1.0303 -0.548589 4.5067e-006 -1.99009e-005 -0.985698 -0.486792 -14.6385 0.607226 -3.27701e-006 -3.04128e-006 -0.249086 20.0655 72.0522 -23.3612 -8.12849 25.2331 3.48432 
51.9796 96.0677 4.19137 -1.33186 -4.66256 -1.40547 0.502333 -0.847914 0.111933 1.0018 2.30753 0.165981 0.996904 3.95246 0.149563 -3.49712 8.74615 -3.94964 3.53106 1.51616 -4.49477 59.0022 -9.98788 -6.21384 112.593 21.2314 15.4542 1.76404e-005 5.37249e-006 1.7507e-006 8.45306 0.0600182 -0.636956 -4.15212e-006 -6.81518e-006 -3.00818 8.0291 -4.95145 0.697666 -62.2575 -6.50403 4.18937 -110.178 20.4483 -4.49879 2.3231e-005 1.47437e-006 4.8717e-006 -10.1104 0.0802138 1.0691 5.76312e-006 3.37479e-007 3.05357 -8.02895 -4.95146 -0.697671 173.76 1.64476 3.50203 180 7.01559e-015 178.978 178.258 10.45 179.686 -7.7875e-007 -2.09955e-006 -0.00480488 -16.3205 67.4143 19.0847 8.13658 25.234 -3.48591 -174.6 1.03495 -0.550164 4.5067e-006 -1.99009e-005 -0.985698 -0.479644 -14.6609 0.608415 -3.27701e-006 -3.04128e-006 -0.249124 20.0675 72.0576 -23.3671 -8.12849 25.2331 3.48432 
51.9832 96.0748 4.19469 -1.33643 -4.67486 -1.3718 0.503415 -0.844903 0.111012 1.00459 2.31354 0.163991 1.00034 3.95848 0.147484 -3.47967 8.73372 -3.9627 3.52633 1.51673 -4.50399 59.016 -9.99724 -6.21977 112.572 21.224 15.4486 1.76404e-005 5.37249e-006 1.7507e-006 8.46381 0.0592909 -0.634494 -4.15212e-006 -6.81518e-006 -3.00818 8.0291 -4.95145 0.697666 -62.2545 -6.48861 4.18026 -110.185 20.458 -4.48669 2.3231e-005 1.47437e-006 4.8717e-006 -10.1123 0.0802133 1.0689 5.76312e-006 3.37479e-007 3.05357 -8.02895 -4.95146 -0.697671 173.771 1.62509 3.49679 180 7.01559e-015 178.977 178.26 10.4538 179.687 -7.7875e-007 -2.09955e-006 -0.00445237 -16.3295 67.416 19.0848 8.13658 25.234 -3.48591 -174.592 1.03982 -0.551719 4.5067e-006 -1.99009e-005 -0.985698 -0.472448 -14.6829 0.609627 -3.27701e-006 -3.04128e-006 -0.249154 20.0691 72.0627 -23.3726 -8.12849 25.2331 3.48432 
51.9881 96.072 4.20068 -1.34095 -4.68685 -1.33769 0.504501 -0.841967 0.110113 1.00737 2.3194 0.162043 1.00374 3.96434 0.145449 -3.46171 8.72181 -3.97603 3.52125 1.51683 -4.51339 59.03 -10.0068 -6.22581 112.551 21.2168 15.4436 1.76404e-005 5.37249e-006 1.7507e-006 8.47422 0.0588539 -0.632088 -4.15212e-006 -6.81518e-006 -3.00818 8.0291 -4.95145 0.697666 -62.2514 -6.47298 4.17104 -110.192 20.468 -4.47475 2.3231e-005 1.47437e-006 4.8717e-006 -10.114 0.0802129 1.06874 5.76312e-006 3.37479e-007 3.05357 -8.02895 -4.95146 -0.697671 173.783 1.6056 3.49173 180 7.01559e-015 178.976 178.261 10.4574 179.687 -7.7875e-007 -2.09955e-006 -0.00406529 -16.339 67.4173 19.0847 8.13658 25.234 -3.48591 -174.583 1.04498 -0.553247 4.5067e-006 -1.99009e-005 -0.985698 -0.465185 -14.7044 0.610872 -3.27701e-006 -3.04128e-006 -0.249172 20.0702 72.0674 -23.3775 -8.12849 25.2331 3.48432 
